<mxfile host="app.diagrams.net" agent="Mozilla/5.0 (Macintosh; Intel Mac OS X 10_15_7) AppleWebKit/537.36 (KHTML, like Gecko) Chrome/128.0.0.0 Safari/537.36" version="24.7.12">
  <diagram name="第 1 页" id="xjbRwGA9ZPXK2-2sTnHO">
    <mxGraphModel dx="808" dy="500" grid="1" gridSize="10" guides="1" tooltips="1" connect="1" arrows="1" fold="1" page="1" pageScale="1" pageWidth="827" pageHeight="1169" math="0" shadow="0">
      <root>
        <mxCell id="0" />
        <mxCell id="1" parent="0" />
        <mxCell id="7f8GKL5UIHA0g3gUvp9T-10" value="" style="rounded=0;whiteSpace=wrap;html=1;opacity=0;" vertex="1" parent="1">
          <mxGeometry x="140" y="60" width="480" height="180" as="geometry" />
        </mxCell>
        <mxCell id="7f8GKL5UIHA0g3gUvp9T-6" style="edgeStyle=orthogonalEdgeStyle;rounded=0;orthogonalLoop=1;jettySize=auto;html=1;entryX=0.5;entryY=0;entryDx=0;entryDy=0;exitX=0.5;exitY=1;exitDx=0;exitDy=0;" edge="1" parent="1" source="7f8GKL5UIHA0g3gUvp9T-1" target="7f8GKL5UIHA0g3gUvp9T-2">
          <mxGeometry relative="1" as="geometry" />
        </mxCell>
        <mxCell id="7f8GKL5UIHA0g3gUvp9T-7" style="edgeStyle=orthogonalEdgeStyle;rounded=0;orthogonalLoop=1;jettySize=auto;html=1;entryX=0.5;entryY=0;entryDx=0;entryDy=0;" edge="1" parent="1" source="7f8GKL5UIHA0g3gUvp9T-1" target="7f8GKL5UIHA0g3gUvp9T-3">
          <mxGeometry relative="1" as="geometry" />
        </mxCell>
        <mxCell id="7f8GKL5UIHA0g3gUvp9T-8" style="edgeStyle=orthogonalEdgeStyle;rounded=0;orthogonalLoop=1;jettySize=auto;html=1;entryX=0.5;entryY=0;entryDx=0;entryDy=0;" edge="1" parent="1" source="7f8GKL5UIHA0g3gUvp9T-1" target="7f8GKL5UIHA0g3gUvp9T-4">
          <mxGeometry relative="1" as="geometry" />
        </mxCell>
        <mxCell id="7f8GKL5UIHA0g3gUvp9T-9" style="edgeStyle=orthogonalEdgeStyle;rounded=0;orthogonalLoop=1;jettySize=auto;html=1;entryX=0.5;entryY=0;entryDx=0;entryDy=0;exitX=0.5;exitY=1;exitDx=0;exitDy=0;" edge="1" parent="1" source="7f8GKL5UIHA0g3gUvp9T-1" target="7f8GKL5UIHA0g3gUvp9T-5">
          <mxGeometry relative="1" as="geometry" />
        </mxCell>
        <mxCell id="7f8GKL5UIHA0g3gUvp9T-1" value="Master" style="rounded=0;whiteSpace=wrap;html=1;" vertex="1" parent="1">
          <mxGeometry x="340" y="80" width="80" height="40" as="geometry" />
        </mxCell>
        <mxCell id="7f8GKL5UIHA0g3gUvp9T-2" value="Master" style="rounded=0;whiteSpace=wrap;html=1;" vertex="1" parent="1">
          <mxGeometry x="160" y="170" width="80" height="40" as="geometry" />
        </mxCell>
        <mxCell id="7f8GKL5UIHA0g3gUvp9T-3" value="Master" style="rounded=0;whiteSpace=wrap;html=1;" vertex="1" parent="1">
          <mxGeometry x="280" y="170" width="80" height="40" as="geometry" />
        </mxCell>
        <mxCell id="7f8GKL5UIHA0g3gUvp9T-4" value="..." style="rounded=0;whiteSpace=wrap;html=1;" vertex="1" parent="1">
          <mxGeometry x="400" y="170" width="80" height="40" as="geometry" />
        </mxCell>
        <mxCell id="7f8GKL5UIHA0g3gUvp9T-5" value="Master" style="rounded=0;whiteSpace=wrap;html=1;" vertex="1" parent="1">
          <mxGeometry x="520" y="170" width="80" height="40" as="geometry" />
        </mxCell>
      </root>
    </mxGraphModel>
  </diagram>
</mxfile>
